<svg width="16" height="16" viewBox="0 0 16 16" fill="none" xmlns="http://www.w3.org/2000/svg">
<path d="M0.666656 4.66647H2C2.58666 4.66647 3.16334 4.82047 3.66666 5.11247C3.772 5.17382 3.88731 5.20247 4.00066 5.20247C4.23066 5.20247 4.45466 5.08313 4.578 4.87047C4.76334 4.55182 4.654 4.14382 4.336 3.95913C3.62866 3.54982 2.82134 3.33313 2 3.33313H0.666656C0.298 3.33313 0 3.63182 0 3.99982C0 4.36782 0.298 4.66647 0.666656 4.66647Z" fill="white"/>
<path d="M10 4.66647H11.3333V6.66647C11.3333 6.92247 11.4807 7.15647 11.7107 7.26713C11.8033 7.31113 11.902 7.33313 12 7.33313C12.1487 7.33313 12.296 7.28313 12.4167 7.18713L15.75 4.52047C15.908 4.39382 16 4.20247 16 3.99982C16 3.79716 15.908 3.60582 15.75 3.47916L12.4167 0.812473C12.216 0.652473 11.9407 0.621817 11.7107 0.732473C11.4807 0.843129 11.3333 1.07713 11.3333 1.33313V3.33313H10C7.42734 3.33313 5.33334 5.42647 5.33334 7.99979C5.33334 9.83779 3.838 11.3331 2 11.3331H0.666656C0.298 11.3331 0 11.6318 0 11.9998C0 12.3678 0.298 12.6665 0.666656 12.6665H2C4.57266 12.6665 6.66666 10.5731 6.66666 7.99982C6.66666 6.16182 8.162 4.66647 10 4.66647Z" fill="white"/>
<path d="M15.75 11.4793L12.4167 8.8126C12.216 8.65194 11.9407 8.62125 11.7107 8.73194C11.4807 8.84329 11.3333 9.0766 11.3333 9.33329V11.3333H10C9.34134 11.3333 8.704 11.1413 8.15734 10.7779C7.84934 10.5753 7.43669 10.6573 7.23334 10.9646C7.02934 11.2713 7.11269 11.6853 7.41934 11.8886C8.18534 12.3973 9.07734 12.6666 10 12.6666H11.3333V14.6666C11.3333 14.9226 11.4807 15.1566 11.7107 15.2673C11.8033 15.3113 11.902 15.3333 12 15.3333C12.1487 15.3333 12.296 15.2833 12.4167 15.1873L15.75 12.5206C15.908 12.3939 16 12.2019 16 11.9999C16 11.7973 15.908 11.6053 15.75 11.4793Z" fill="white"/>
</svg>
